<svg width="251" height="6" viewBox="0 0 251 6" fill="none" xmlns="http://www.w3.org/2000/svg">
<path d="M2.4254 0.0305095C3.8641 -0.0476489 5.71764 0.0359211 7.14699 0.150626C7.59782 0.186202 7.36833 0.345226 7.68812 0.376944C8.26746 0.438775 8.86306 0.360783 9.44222 0.434439C9.63418 0.459627 9.39477 0.711522 9.59681 0.732167C10.7421 0.84349 11.8189 0.77933 12.9524 0.832875C18.6034 1.09706 24.1876 1.19161 29.9148 1.30638C31.7994 1.34401 34.063 1.57262 36.071 1.47264C36.2919 1.46075 36.1602 1.23965 36.2023 1.22142C36.8645 0.942449 36.6444 1.3888 37.081 1.44811C38.8406 1.68226 40.7954 1.70263 42.4981 1.6173C43.2313 1.58035 42.4943 1.14119 43.2363 1.38768C43.288 1.40434 43.1004 1.63913 43.3032 1.66417C43.4159 1.67796 43.5536 1.68586 43.7031 1.6902C44.1362 1.70357 44.6764 1.68308 44.9363 1.69713C45.6001 1.73417 45.7111 1.73181 46.3488 1.73448C47.226 1.74018 48.2752 1.8569 49.1811 1.8037C49.3776 1.79164 49.1173 1.55096 49.431 1.51C49.7442 1.46911 50.583 1.48951 50.8691 1.54625C51.1545 1.60302 51.0331 1.7922 51.0836 1.83556C51.4943 2.20155 52.5022 1.69465 52.6078 1.68212C54.8216 1.46852 56.8686 1.75728 58.9492 1.75646C60.5622 1.75522 62.3329 1.65989 63.8475 1.67296C65.6765 1.68947 67.2709 1.81989 69.0289 1.79747C69.2167 1.79538 68.9966 1.51239 69.226 1.50926C71.6866 1.47633 74.0887 1.50718 76.5396 1.69823C76.7858 1.71764 76.4685 1.9661 76.7145 2.00035C78.2324 2.20455 80.5517 2.69507 81.4532 1.61327C82.4708 1.65551 83.7072 1.69916 84.6009 1.91722C85.1816 2.05757 84.6172 2.32825 85.3314 2.21275C85.4926 2.18702 85.2829 1.94997 85.5248 1.92931C86.5431 1.84253 87.6624 1.91958 88.6814 1.79711C88.8886 1.77164 88.8321 1.55923 88.8908 1.52098C89.377 1.21122 90.185 1.72328 90.3622 1.76048C91.708 2.03795 92.6966 1.92876 93.963 1.93553C94.257 1.93722 93.9094 1.65192 94.1924 1.6433C95.6552 1.60241 97.1489 1.62693 98.5826 1.75353C98.9009 1.78237 98.6082 2.0254 98.7603 2.05162C99.4314 2.16427 99.5805 1.70525 100.226 1.80443C100.362 1.82475 100.285 2.0328 100.31 2.05565C100.701 2.41433 101.03 1.9061 101.13 1.89488C102.381 1.74157 103.183 2.27213 104.399 2.19701C104.544 2.18748 104.216 1.92424 104.625 1.91356C107.363 1.84089 110.214 1.9132 112.919 2.12376C113.337 2.15615 113.039 2.3539 113.065 2.37828C113.493 2.75918 113.77 2.24882 113.907 2.2296C114.981 2.09124 115.987 2.51924 116.72 1.91136C121.283 2.12232 125.821 1.78096 130.343 2.32555C130.401 2.33185 130.298 2.58321 130.413 2.59471C131.794 2.73584 131.529 2.34519 132.444 1.86742C132.674 1.74745 133.374 2.32428 133.436 2.36656C133.662 2.52237 133.428 2.89632 133.504 2.9265C134.129 3.16345 134.027 1.92678 134.871 1.92638C134.898 1.92844 134.787 2.15606 134.857 2.1787C135.077 2.24975 135.296 2.1593 135.511 2.23766C136.003 2.41896 136.179 3.01988 136.931 2.67015C137.026 2.62476 136.88 1.92327 137.635 1.95641C137.936 1.97021 139.267 1.95819 139.64 2.00365C140.012 2.04905 139.756 2.27511 139.783 2.2849C140.786 2.58382 140.406 2.7077 140.908 3.15025C141.41 3.59113 141.27 2.53959 141.475 2.42223C141.68 2.30519 142.414 2.55182 142.594 2.63756C142.774 2.72333 142.55 2.86697 142.71 2.91551C143.774 3.23264 143.178 2.39357 143.529 2.22667C144.358 1.83149 145.004 2.61131 145.761 2.68773C145.966 2.70836 145.799 2.53075 145.981 2.51414C146.704 2.45071 147.138 2.69404 147.958 2.47093C148.093 2.43457 148.754 1.96572 149.185 2.3098C149.246 2.35941 149.072 2.55374 149.381 2.59727C149.843 2.6626 150.675 2.70508 151.17 2.64012C151.536 2.59206 151.117 2.27185 151.577 2.37132C151.781 2.41574 151.402 2.60306 151.786 2.67088C152.168 2.73868 153.143 2.73045 153.514 2.72398C153.883 2.71737 153.681 2.47448 153.711 2.45811C153.892 2.36438 154.6 2.24725 154.663 2.24754C157.852 2.21789 160.746 2.62732 163.854 2.49181C164.096 2.48152 163.935 2.22539 163.972 2.22118C164.801 2.11386 164.147 2.79487 164.726 3.02281C164.642 2.50304 164.984 2.59715 165.565 2.54015C165.846 2.51225 165.693 2.31099 165.719 2.29039C166.134 1.9847 166.422 2.37954 166.497 2.46031C166.769 2.75743 167.075 2.40636 167.264 2.60496C167.453 2.80208 167.017 3.0943 167.582 3.09056C167.74 2.9045 167.321 2.41827 167.75 2.33946C169.377 2.04138 172.326 2.42288 173.644 2.46251C174.939 2.5021 175.354 2.46777 176.103 2.53502C177.452 2.6566 176.958 2.29585 177.792 2.13072C178.63 1.96562 178.226 2.85324 178.346 3.04405C178.467 3.23478 178.598 3.03844 178.748 3.14329C178.897 3.24812 178.574 3.37786 178.925 3.41722C179.277 3.45654 180.232 3.11722 180.355 2.91771C180.615 2.49501 180.187 2.05138 181.107 2.20726C181.16 2.21651 180.989 2.44991 181.191 2.47349C182.789 2.65317 184.463 2.66431 186.079 2.82323C186.3 2.84544 186.103 3.10509 186.231 3.12095C187.569 3.28703 187.09 2.84923 187.819 2.3629C187.657 3.01011 188.055 3.40607 189.066 3.40989C189.686 3.41242 189.579 3.12975 189.978 2.93052C190.098 2.87047 190.534 3.06456 190.613 2.93162C190.872 2.49708 190.465 2.01063 191.514 2.20433C191.56 2.21354 191.414 2.4514 191.573 2.4658C192.598 2.56009 192.72 2.10557 193.815 2.05052C194.685 2.00733 196.26 2.2845 197.241 2.32957C197.221 3.05722 198.149 2.8906 198.522 2.3889C199.14 2.40944 199.872 2.38108 200.493 2.45042C200.709 2.47407 200.567 2.68474 200.594 2.7075C201.011 3.06459 201.291 2.57649 201.43 2.55736C202.93 2.37134 204.133 2.74128 205.595 2.37975C205.646 2.36672 205.729 1.86128 206.113 2.23033C206.138 2.25577 205.664 2.48574 206.339 2.50352C207.025 2.52135 208.232 2.7923 209.216 2.55809C209.447 2.5017 210.028 2.09138 210.489 2.41197C210.55 2.45551 210.483 2.60047 210.571 2.68114C210.857 2.93817 211.013 2.42729 211.347 2.86131C211.692 3.29531 212.331 3.62035 213.319 3.3209C213.35 3.3122 213.579 2.90728 213.88 2.91368C214.362 2.92425 215.036 3.0086 215.525 3.00596C215.76 3.00456 215.61 2.75312 215.65 2.74852C216.043 2.71334 216.404 2.70092 216.75 2.7036C217.86 2.71165 218.83 2.85607 220.08 2.92906C220.364 2.94739 221.309 2.60452 221.917 2.87559C222.583 3.17234 221.911 4.40674 223.418 4.11265C223.995 3.99502 224.838 2.42896 225.939 3.24034C228.039 3.03928 230.053 3.45454 232.234 3.16746C232.33 3.15474 232.63 2.71767 232.85 2.72362C233.166 2.73329 233.38 2.93758 233.624 2.95103C234.679 3.01257 235.517 2.83779 236.55 2.86497C236.924 2.87485 236.795 3.08608 237.232 3.09788C237.666 3.10949 237.939 2.83135 238.566 2.96568C239.029 3.06808 239.474 3.63659 240.052 3.70286C240.074 3.14208 240.519 3.15363 241.242 3.0056C241.38 2.97688 241.232 2.78169 241.298 2.75804C241.57 2.65744 241.782 2.81921 242.064 2.7097C242.13 2.6834 242.133 2.49189 242.186 2.45958C242.644 2.17754 243.341 2.60833 243.454 2.68333C243.934 2.96819 244.173 2.71911 244.526 2.83128C244.878 2.94344 244.353 3.08365 244.762 3.15172C245.649 3.2925 246.776 3.26157 247.655 3.27037C248.02 3.2727 247.771 3.01706 247.823 3.01146C248.505 2.94662 249.318 3.21854 249.695 2.70933C249.947 3.36765 250.081 3.33572 250.234 3.17216C250.321 3.09038 250.455 2.9757 250.582 2.89793C250.638 2.85904 250.767 2.82939 250.84 2.81769C250.851 2.81476 250.901 2.81296 250.926 2.81242C250.94 2.81215 250.952 2.81219 250.962 2.81257C250.967 2.81275 250.972 2.81302 250.976 2.81338C250.976 2.81356 250.986 2.81376 250.996 2.81398C250.998 2.81403 250.999 2.81409 251 2.81414C251 2.81417 251.001 2.8142 251.001 2.81423C251.001 2.81425 251.001 2.81426 251.001 2.81428C251.001 2.81428 251.001 2.81429 251.001 2.8143C251.001 2.8143 251.001 2.8143 251.001 2.8143C251.001 2.8143 251.001 2.8143 251.001 2.8143C251.001 2.8143 251.001 2.8143 251.001 2.8143C251.001 2.8143 251.001 2.8143 251.001 2.8143C251.001 3.59835 251.001 3.0619 251.001 3.1857C251.001 3.1857 251.001 3.1857 251.001 3.1857C251.001 3.1857 251.001 3.1857 251.001 3.1857C251.001 3.1857 251.001 3.1857 251.001 3.1857C251.001 3.1857 251.001 3.1857 251.001 3.1857C251.001 3.18569 251.001 3.18569 251.001 3.18569C251.001 3.18569 251.001 3.18569 251.001 3.18569C251.001 3.18569 251.001 3.18568 251.001 3.18568C251.001 3.18556 250.998 3.18543 250.995 3.1853C250.985 3.18319 250.945 3.17968 250.908 3.17464C250.884 3.16961 250.855 3.16304 250.821 3.1548C250.72 3.13348 250.63 2.51086 250.95 2.41945C250.962 2.4166 250.972 2.41402 250.98 2.41171C250.984 2.41055 250.988 2.40946 250.991 2.40843C250.992 2.40792 250.993 2.40742 250.994 2.40693C250.994 2.40669 250.998 2.40645 250.999 2.40622C251 2.4061 251.001 2.40599 251.001 2.40587C251.001 2.40584 251.001 2.40581 251.001 2.40579C251.001 2.40577 251.001 2.40576 251.001 2.40574C251.001 2.40574 251.001 2.40574 251.001 2.40574C251.001 2.40574 251.001 2.40574 251.001 2.40573C251.001 2.40573 251.001 2.40573 251.001 2.40573C251.001 2.40573 251.001 2.40573 251.001 2.40573C251.001 2.40573 251.001 2.40573 251.001 2.40573C251.001 2.40573 251.001 2.40573 251.001 2.40573C251.001 1.74544 251.001 4.25456 251.001 3.59427V3.59427C251.001 3.59427 251.001 3.59427 251.001 3.59427C251.001 3.59427 251.001 3.59427 251.001 3.59427C251.001 3.59427 251.001 3.59428 251.001 3.59428C251.001 3.59429 251.001 3.59429 251.001 3.5943C251.001 3.59436 251.001 3.59441 251.001 3.59447C250.955 3.5981 250.964 3.60076 250.937 3.60261C250.89 3.6063 250.834 3.60675 250.797 3.60516C250.708 3.60198 250.584 3.59067 250.492 3.58095C250.252 3.56152 250.068 3.54849 249.816 3.61973C249.749 3.63645 249.608 3.79067 249.429 3.94513C249.252 4.09958 249.066 4.25428 249.037 4.27195C248.427 4.54816 248.288 3.61773 248.272 3.56663C247.923 3.01514 247.15 3.64368 246.981 3.68711C246.061 3.88612 245.341 3.75527 244.617 3.89732C244.145 3.98913 244.094 4.59859 243.701 4.57993C242.487 4.51827 241.988 3.66807 240.841 4.40525C240.584 4.56248 240.84 5.22861 239.91 4.70481C239.857 4.67179 239.206 4.19261 238.809 4.49571C238.759 4.53392 238.761 4.72805 238.695 4.74436C238.258 4.84985 237.938 4.69519 237.495 4.76926C237.038 4.84334 236.471 4.95376 235.912 4.88792C235.556 4.84854 235.186 4.48685 235.026 4.39829C234.598 4.1432 234.125 4.56145 233.848 4.25254C233.567 3.94208 234.118 3.4706 233.378 3.27C233.35 3.77437 233.287 4.29206 233.242 4.79929C231.724 4.78153 230.112 4.61844 228.563 4.64072C228.366 4.64399 228.568 4.91514 228.356 4.92564C227.432 4.96871 226.701 4.77542 225.782 4.85239C225.087 4.91302 224.224 5.20011 223.533 5.27244C223.093 4.69529 222 4.89122 221.176 4.83848C220.888 4.82025 220.907 4.66611 220.7 4.61582C219.951 4.42984 220.306 4.93985 220.103 5.02012C219.237 5.36267 219.164 4.20827 218.113 4.23679C218.058 4.23792 217.37 4.85326 217.273 4.89158C216.663 5.14145 217.173 4.6774 216.79 4.63194C216.776 4.63034 216.763 4.62872 216.75 4.62708C216.114 4.54333 215.656 4.40536 214.88 4.58213C214.65 4.63552 214.092 5.01905 213.635 4.72239C213.575 4.68354 213.608 4.48015 213.559 4.46824C212.679 4.26969 212.654 4.90878 212.175 5.12522C211.694 5.34162 210.939 4.90044 210.784 4.77329C210.38 4.44436 211.094 4.63272 211.115 4.60044C211.37 4.2163 210.821 4.28244 210.396 4.24998C210.335 3.62335 209.738 3.66096 209.954 4.21885C209.979 4.27979 210.311 4.22135 210.396 4.24998C210.023 4.86479 209.367 4.94353 208.63 4.369C208.287 4.09972 208.602 3.78576 207.598 3.90061C207.141 3.95246 207.318 4.38393 206.913 4.50156C205.987 4.76996 204.758 4.36747 203.772 4.43089C203.429 4.45391 203.763 4.69009 203.529 4.71397C202.906 4.77806 202.352 4.60085 201.716 4.69163C201.658 4.70015 201.799 4.94739 201.601 4.95054C200.097 4.97925 198.758 4.82089 197.215 4.8165C196.461 4.8145 195.097 4.95085 194.296 4.92344C192.944 4.87738 191.284 4.51786 190.106 4.6052C189.339 4.66111 189.507 4.90839 189.177 5.07688C188.544 5.40348 187.455 4.81847 187.303 4.72788C187.299 4.72488 187.947 4.66659 187.601 4.53965C187.4 4.27515 187.31 4.72674 187.303 4.72788C187.206 4.66936 185.904 4.61323 185.643 4.6605C185.502 4.68633 185.581 4.92062 185.507 4.92966C183.735 5.13933 182.023 5.19888 180.245 5.08933C180.214 5.0846 180.261 4.82253 180.188 4.81467C179.163 4.69815 178.483 5.01874 177.651 5.20908C176.815 5.39934 176.147 5.33561 175.648 4.88572C175.012 4.94236 174.094 4.74347 173.564 4.62278C173.034 4.5021 172.96 5.01223 172.913 5.02231C171.467 5.3451 170.648 5.05311 169.146 5.00767C168.437 4.98519 167.001 5.05918 166.241 5.11497C165.636 5.15991 165.27 5.04035 164.71 5.1168C164.635 5.12701 164.711 5.35414 164.688 5.36289C164.062 5.63465 164.363 5.07937 164.234 4.9802C163.765 4.61956 163.475 4.42749 162.67 4.59715C162.485 4.636 161.943 5.43552 161.604 5.48227C161.163 5.5416 161.327 5.25502 160.867 5.32444C160.828 5.33012 160.837 5.50692 160.555 5.49912C159.247 5.46526 157.814 5.36238 156.441 5.3801C156.254 5.38184 156.494 5.66227 156.223 5.66941C154.944 5.70265 153.573 5.69227 152.337 5.56101C152.033 5.52782 152.223 5.33147 152.157 5.27317C151.753 4.92041 151.178 5.43296 151.083 5.44272C148.811 5.68903 147.099 5.22518 144.791 5.44602C144.666 5.45898 143.699 6.00844 143.267 5.53721C143.237 5.50585 142.811 5.02373 142.436 5.35337C142.412 5.37399 142.677 5.6222 142.215 5.5969C141.753 5.57166 141.009 5.73741 140.372 5.4647C140.171 5.37879 139.695 4.89786 139.093 5.28123C139.054 5.30799 138.125 6.17484 137.793 5.57676C137.739 5.47831 137.796 4.8454 137.077 5.1699C136.94 5.23281 137.188 5.37398 136.827 5.46213C136.275 5.598 135.542 5.42848 134.862 5.71042C134.744 5.76034 134.239 6.18992 133.834 5.86386C133.77 5.8128 133.891 5.6015 133.677 5.57786C132.66 5.46443 131.594 5.60576 130.561 5.45957C130.195 5.4082 130.382 5.06661 130.001 4.97507C129.619 4.88357 128.851 4.79554 128.452 4.95164C128.053 5.1078 128.489 5.65221 127.891 5.69577C125.293 5.88498 122.713 5.56561 120.12 5.5189C119.735 5.51192 120.054 5.70672 119.487 5.71042C117.394 5.72492 113.783 5.90757 111.969 5.49363C110.511 5.16208 112.346 4.90967 111.232 4.77476C110.694 4.7104 110.114 5.34333 109.984 5.36326C108.719 5.56567 107.842 5.28529 106.709 5.37131C106.474 5.38916 106.705 5.6457 106.504 5.65806C105.817 5.70254 105.097 5.58804 104.443 5.60898C104.149 5.61897 104.203 5.8149 103.934 5.79978C103.288 5.76585 102.719 5.68349 102.092 5.49985C102.035 5.48312 102.42 5.23939 101.944 5.23032C101.176 5.21634 100.219 5.03518 99.3242 5.22227C99.0596 5.27854 99.049 5.72634 98.4811 5.41709C98.3621 5.3525 98.5136 4.81479 97.853 5.27939C97.7416 5.3566 96.6336 5.98326 96.092 5.57932C95.949 5.47301 95.5842 5.033 95.2691 5.10215C95.2264 5.11318 95.3976 5.35371 95.1365 5.37717C94.2156 5.45567 93.2304 5.43001 92.2802 5.50535C92.0259 5.52594 92.4046 5.77484 92.0257 5.79758C90.982 5.86049 89.6954 5.79712 88.6775 5.71921C88.2989 5.69002 88.5605 5.48384 88.533 5.4614C88.0901 5.09645 87.829 5.58905 87.6824 5.61777C86.771 5.78976 86.0801 5.55837 85.2469 5.6196C85.017 5.63588 85.18 5.87075 85.1343 5.8917C84.6601 6.09633 85.0132 5.67452 84.7133 5.62803C83.875 5.49637 82.9398 5.51525 82.0752 5.54526C81.7596 5.55663 82.1142 5.82898 81.8311 5.83603C80.1481 5.88296 78.4582 5.8569 76.8118 5.70676C76.503 5.678 76.6973 5.46828 76.6329 5.42038C76.1894 5.08527 75.5427 5.54237 75.3943 5.58591C74.7191 5.78472 74.458 5.59927 73.8658 5.63389C70.9614 5.80623 67.4024 5.6834 64.6157 5.60752C61.0767 5.50986 58.2964 5.31035 54.8486 5.36216C54.6316 5.36519 54.8504 5.64417 54.6634 5.65036C52.2979 5.71762 49.8495 5.6086 47.4735 5.68918C47.2707 5.6953 47.5628 5.95978 47.2377 5.97849C46.5709 6.01872 45.739 6.00434 45.0856 5.91989C44.767 5.87921 45.1942 5.65226 44.8737 5.61594C44.4904 5.57218 44.0961 5.54594 43.7031 5.53655C43.3085 5.52768 42.9153 5.53383 42.5336 5.55442C42.1997 5.57304 42.7032 5.84353 42.2697 5.84665C39.3791 5.87349 36.513 5.92007 33.5308 5.5698C33.3315 5.54574 33.1561 4.99599 32.7381 5.10142C32.7067 5.25399 32.7084 5.43346 32.6947 5.59653C28.4342 5.68438 24.2404 5.4938 19.9494 5.46433C19.768 5.46315 20.081 5.75444 19.7307 5.75364C17.761 5.74933 15.7408 5.83002 13.7054 5.5405C13.4984 5.51219 13.5986 4.99974 13.0004 5.07725C12.8984 5.09139 12.0009 5.15973 11.7526 5.27097C11.7205 5.28775 11.8874 5.52694 11.5923 5.53391C9.89893 5.57023 8.13501 5.51563 6.42792 5.36948C6.14349 5.34544 6.44556 5.09072 6.24425 5.07139C4.85822 4.93617 3.36845 5.1298 2.03573 4.89854C1.15235 4.74282 1.48022 4.30252 1.01618 3.86912C0.937341 3.80797 0.412897 3.79828 0.370382 3.54612C0.295755 2.91204 0.568204 2.21773 0.459902 1.54186C0.424191 1.39628 -0.288502 1.55308 0.133832 1.20128C0.158266 1.17774 0.707096 1.06098 0.823226 0.941639C0.916383 0.859129 0.745256 0.602682 0.940836 0.497061C1.1169 0.391538 1.33384 0.606507 1.63479 0.482412C1.96485 0.356782 1.79394 0.0650439 2.4254 0.0305095ZM171.196 4.08335C170.711 3.83837 170.64 4.73565 171.164 4.52097C171.189 4.50953 171.221 4.09537 171.196 4.08335ZM230.131 3.94163C229.516 3.54586 229.08 4.1278 229.524 4.43345C229.965 4.73877 230.317 4.0616 230.131 3.94163ZM236.753 3.65269C236.001 3.34065 235.88 4.61303 236.689 4.35581C236.736 4.34128 236.797 3.67081 236.753 3.65269ZM3.18811 3.74571C3.18173 3.73379 2.79944 3.72218 2.78111 3.73399C2.57247 4.01896 3.35579 4.04199 3.18811 3.74571ZM243.292 3.33812C243.073 3.166 242.401 3.36469 242.69 3.57872C242.928 3.7509 243.569 3.55222 243.292 3.33812ZM145.782 3.12571C145.774 3.11234 145.491 3.1003 145.497 3.17589C145.516 3.41932 145.91 3.35061 145.782 3.12571ZM247.576 2.67653C249.226 2.72443 250.219 3.77548 248.427 3.65688C248.101 3.63542 249.126 3.3217 248.715 3.22695C247.959 3.05431 247.453 3.71424 246.683 3.36061C246.544 3.29589 247.481 2.67146 247.579 2.67507C247.578 2.67556 247.577 2.67604 247.576 2.67653ZM170.917 3.0056C170.907 2.99373 170.518 2.98248 170.508 2.99425C170.297 3.27911 171.082 3.30194 170.917 3.0056ZM129.297 2.57091C129.276 2.54562 128.368 2.52198 128.339 2.54527C127.865 3.0111 129.7 3.06029 129.297 2.57091ZM197.256 2.34898C197.681 2.06241 198.185 2.02867 198.52 2.38853C198.103 2.36943 197.68 2.36662 197.256 2.34898Z" fill="white"/>
</svg>
