<svg width="206" height="4" viewBox="0 0 206 4" fill="none" xmlns="http://www.w3.org/2000/svg">
<path d="M1.99026 0.0203398C3.17102 -0.0317657 4.69226 0.0239479 5.86534 0.100418C6.23535 0.124135 6.047 0.230151 6.30946 0.251296C6.78493 0.292517 7.27376 0.240522 7.74908 0.289627C7.90662 0.306419 7.71014 0.474349 7.87596 0.488112C8.81588 0.562327 9.69962 0.519554 10.6299 0.555251C15.2679 0.731372 19.8508 0.794411 24.5513 0.870925C26.098 0.89601 27.9557 1.04841 29.6038 0.981765C29.7851 0.973834 29.677 0.826434 29.7115 0.814285C30.255 0.628302 30.0744 0.925872 30.4327 0.965408C31.8768 1.12151 33.4812 1.13509 34.8786 1.0782C35.4804 1.05357 34.8755 0.760793 35.4845 0.925125C35.5269 0.936228 35.3729 1.09276 35.5394 1.10945C35.6318 1.11864 35.7449 1.12391 35.8676 1.1268C36.223 1.13572 36.6664 1.12206 36.8797 1.13142C37.4245 1.15612 37.5156 1.15454 38.039 1.15633C38.7589 1.16013 39.6199 1.23794 40.3635 1.20247C40.5247 1.19443 40.3111 1.03397 40.5685 1.00667C40.8256 0.979407 41.5141 0.993013 41.7489 1.03084C41.983 1.06868 41.8834 1.1948 41.9249 1.22371C42.262 1.4677 43.0891 1.12977 43.1758 1.12141C44.9927 0.979017 46.6727 1.17152 48.3803 1.17097C49.7041 1.17015 51.1574 1.1066 52.4005 1.11531C53.9015 1.12632 55.2101 1.21327 56.6529 1.19832C56.807 1.19693 56.6264 1.00826 56.8147 1.00618C58.8341 0.984227 60.8055 1.00479 62.8171 1.13216C63.0191 1.1451 62.7587 1.31074 62.9606 1.33357C64.2064 1.4697 66.1098 1.79672 66.8497 1.07552C67.6849 1.10368 68.6996 1.13278 69.4331 1.27815C69.9097 1.37172 69.4464 1.55217 70.0326 1.47518C70.1649 1.45802 69.9928 1.29999 70.1913 1.28621C71.0271 1.22836 71.9457 1.27973 72.782 1.19808C72.9521 1.1811 72.9057 1.03949 72.9539 1.014C73.3529 0.807489 74.0161 1.14886 74.1615 1.17366C75.266 1.35864 76.0774 1.28585 77.1167 1.29036C77.358 1.29149 77.0727 1.10129 77.305 1.09554C78.5055 1.06828 79.7314 1.08463 80.9081 1.16902C81.1694 1.18826 80.9291 1.35027 81.054 1.36775C81.6048 1.44285 81.7271 1.13684 82.2567 1.20296C82.3685 1.21651 82.3055 1.35521 82.3259 1.37044C82.6468 1.60956 82.9171 1.27074 82.9991 1.26326C84.0256 1.16105 84.684 1.51476 85.6816 1.46468C85.801 1.45833 85.5318 1.28283 85.8674 1.27571C88.1145 1.22727 90.4538 1.27548 92.6744 1.41585C93.017 1.43744 92.7724 1.56928 92.794 1.58553C93.1453 1.83946 93.3729 1.49922 93.4847 1.48641C94.3668 1.39417 95.1925 1.6795 95.7936 1.27425C99.5383 1.41489 103.263 1.18732 106.975 1.55037C107.022 1.55458 106.937 1.72215 107.032 1.72982C108.165 1.82391 107.948 1.56347 108.698 1.24495C108.887 1.16497 109.462 1.54953 109.513 1.57772C109.699 1.68159 109.506 1.93089 109.568 1.95101C110.082 2.10897 109.998 1.28453 110.691 1.28426C110.712 1.28564 110.621 1.43739 110.68 1.45247C110.86 1.49984 111.039 1.43954 111.216 1.49178C111.62 1.61265 111.764 2.01326 112.381 1.78011C112.459 1.74985 112.34 1.28219 112.959 1.30428C113.206 1.31348 114.299 1.30547 114.604 1.33578C114.91 1.36605 114.7 1.51675 114.722 1.52327C115.545 1.72255 115.233 1.80515 115.645 2.10018C116.057 2.3941 115.943 1.69307 116.111 1.61483C116.279 1.5368 116.881 1.70122 117.029 1.75838C117.177 1.81556 116.993 1.91133 117.124 1.94368C117.998 2.1551 117.508 1.59572 117.796 1.48446C118.477 1.221 119.007 1.74089 119.628 1.79183C119.797 1.80559 119.659 1.68718 119.809 1.67611C120.402 1.63382 120.759 1.79604 121.432 1.6473C121.542 1.62306 122.085 1.31049 122.438 1.53988C122.488 1.57295 122.346 1.70251 122.599 1.73153C122.979 1.77508 123.661 1.8034 124.068 1.76009C124.368 1.72805 124.024 1.51458 124.401 1.58089C124.569 1.6105 124.258 1.73539 124.573 1.7806C124.887 1.8258 125.687 1.82031 125.991 1.816C126.294 1.81159 126.128 1.64966 126.153 1.63875C126.301 1.57626 126.883 1.49818 126.934 1.49837C129.552 1.47861 131.927 1.75156 134.478 1.66122C134.676 1.65436 134.544 1.4836 134.574 1.4808C135.254 1.40925 134.718 1.86326 135.193 2.01522C135.124 1.6687 135.405 1.73144 135.882 1.69344C136.112 1.67485 135.987 1.54067 136.008 1.52694C136.349 1.32314 136.585 1.58637 136.646 1.64022C136.87 1.8383 137.121 1.60425 137.276 1.73665C137.432 1.86807 137.074 2.06288 137.537 2.06038C137.667 1.93634 137.323 1.61219 137.675 1.55965C139.01 1.36093 141.43 1.61527 142.512 1.64168C143.575 1.66808 143.916 1.6452 144.53 1.69002C145.638 1.77108 145.232 1.53058 145.917 1.42049C146.605 1.31042 146.273 1.90217 146.372 2.02938C146.471 2.15653 146.579 2.02564 146.701 2.09554C146.824 2.16542 146.559 2.25192 146.847 2.27816C147.135 2.30437 147.919 2.07816 148.02 1.94515C148.234 1.66336 147.883 1.3676 148.637 1.47152C148.681 1.47769 148.54 1.63328 148.706 1.64901C150.018 1.76879 151.392 1.77622 152.718 1.88216C152.9 1.89697 152.737 2.07007 152.843 2.08065C153.94 2.19137 153.548 1.8995 154.146 1.57528C154.013 2.00675 154.34 2.27073 155.169 2.27328C155.678 2.27496 155.59 2.08651 155.918 1.9537C156.017 1.91366 156.374 2.04305 156.439 1.95443C156.651 1.66473 156.317 1.34044 157.179 1.46957C157.217 1.4757 157.096 1.63428 157.227 1.64388C158.068 1.70674 158.168 1.40373 159.067 1.36703C159.781 1.33823 161.074 1.52301 161.879 1.55306C161.862 2.03816 162.624 1.92708 162.93 1.59261C163.437 1.60631 164.038 1.5874 164.548 1.63363C164.725 1.64939 164.609 1.78984 164.631 1.80502C164.973 2.04308 165.202 1.71768 165.316 1.70492C166.548 1.58091 167.535 1.82754 168.735 1.58651C168.777 1.57783 168.845 1.24087 169.161 1.4869C169.181 1.50386 168.792 1.65718 169.346 1.66903C169.909 1.68091 170.9 1.86155 171.707 1.70541C171.896 1.66782 172.373 1.39427 172.751 1.608C172.802 1.63702 172.747 1.73366 172.819 1.78744C173.054 1.9588 173.182 1.61821 173.455 1.90756C173.739 2.19689 174.263 2.41358 175.074 2.21395C175.1 2.20815 175.287 1.9382 175.535 1.94247C175.93 1.94951 176.484 2.00575 176.885 2.00399C177.077 2.00305 176.954 1.83543 176.988 1.83236C177.31 1.80891 177.606 1.80063 177.89 1.80241C178.801 1.80778 179.598 1.90406 180.623 1.95272C180.856 1.96494 181.632 1.73636 182.13 1.91708C182.677 2.11491 182.126 2.93784 183.363 2.74178C183.836 2.66336 184.528 1.61932 185.431 2.16024C187.155 2.02621 188.808 2.30305 190.598 2.11166C190.677 2.10318 190.923 1.81179 191.104 1.81576C191.363 1.82221 191.538 1.9584 191.739 1.96737C192.605 2.00839 193.292 1.89188 194.141 1.91C194.447 1.91658 194.341 2.0574 194.7 2.06527C195.056 2.07301 195.28 1.88758 195.795 1.97714C196.175 2.0454 196.54 2.42441 197.014 2.46859C197.032 2.09474 197.398 2.10244 197.991 2.00375C198.105 1.9846 197.983 1.85448 198.037 1.83871C198.26 1.77165 198.434 1.87949 198.666 1.80648C198.72 1.78895 198.722 1.66128 198.766 1.63974C199.142 1.45171 199.714 1.7389 199.807 1.78891C200.2 1.97881 200.396 1.81276 200.686 1.88754C200.975 1.96231 200.545 2.05579 200.88 2.10116C201.608 2.19501 202.533 2.1744 203.254 2.18026C203.554 2.18182 203.35 2.01139 203.393 2.00766C203.952 1.96443 204.62 2.14571 204.929 1.80624C205.136 2.24512 205.245 2.22383 205.371 2.11479C205.442 2.06027 205.552 1.98382 205.657 1.93197C205.703 1.90605 205.809 1.88628 205.868 1.87848C205.877 1.87653 205.919 1.87533 205.939 1.87496C205.95 1.87478 205.96 1.87481 205.969 1.87506C205.973 1.87519 205.977 1.87537 205.98 1.8756C205.98 1.87572 205.988 1.87585 205.996 1.876C205.998 1.87604 205.999 1.87608 206 1.87611C206 1.87613 206 1.87615 206 1.87617C206 1.87618 206 1.87619 206 1.8762C206 1.87621 206.001 1.87621 206.001 1.87622C206.001 1.87622 206.001 1.87622 206.001 1.87622C206.001 1.87622 206.001 1.87622 206.001 1.87622C206.001 1.87622 206.001 1.87622 206.001 1.87622C206.001 1.87622 206.001 1.87622 206.001 1.87622C206.001 1.87622 206.001 1.87622 206.001 1.87622C206.001 1.73867 206.001 2.26137 206.001 2.12382V2.12382C206.001 2.12382 206.001 2.12382 206.001 2.12382C206.001 2.12382 206.001 2.12382 206.001 2.12382C206.001 2.12381 206.001 2.12381 206.001 2.12381C206.001 2.12381 206.001 2.12381 206.001 2.12381C206.001 2.12381 206.001 2.12381 206.001 2.12381C206.001 2.12381 206.001 2.12381 206 2.1238C206 2.12372 205.998 2.12364 205.995 2.12355C205.97 2.12074 205.901 2.1142 205.853 2.10322C205.77 2.08901 205.696 1.67392 205.959 1.61299C205.969 1.61108 205.977 1.60937 205.983 1.60782C205.987 1.60705 205.99 1.60633 205.992 1.60564C205.993 1.6053 205.994 1.60496 205.995 1.60464C205.995 1.60448 205.998 1.60432 205.999 1.60416C206 1.60409 206 1.60401 206 1.60393C206 1.60391 206 1.60389 206 1.60388C206.001 1.60387 206.001 1.60386 206.001 1.60385C206.001 1.60385 206.001 1.60384 206.001 1.60384C206.001 1.60384 206.001 1.60384 206.001 1.60384C206.001 1.60384 206.001 1.60384 206.001 1.60384V1.60384C206.001 1.60384 206.001 1.60384 206.001 1.60384C206.001 1.16364 206.001 2.83639 206.001 2.3962C206.001 2.3962 206.001 2.3962 206.001 2.3962C206.001 2.3962 206.001 2.3962 206.001 2.3962C206.001 2.3962 206.001 2.3962 206.001 2.3962C206.001 2.3962 206.001 2.3962 206.001 2.3962C206.001 2.3962 206.001 2.3962 206.001 2.3962C206.001 2.39621 206.001 2.39621 206.001 2.39622C206 2.39626 206 2.39629 206 2.39633C205.963 2.39875 205.97 2.40052 205.948 2.40176C205.909 2.40422 205.864 2.40452 205.833 2.40346C205.76 2.40134 205.658 2.3938 205.583 2.38732C205.386 2.37437 205.234 2.36568 205.028 2.41317C204.956 2.43546 204.442 2.82442 204.388 2.84799C203.888 3.03213 203.774 2.41184 203.761 2.37777C203.475 2.01011 202.84 2.42914 202.701 2.45809C201.946 2.59076 201.355 2.50353 200.761 2.59823C200.374 2.65943 200.332 3.06574 200.009 3.05331C199.013 3.0122 198.604 2.4454 197.662 2.93685C197.451 3.04167 197.661 3.48575 196.898 3.13656C196.855 3.11454 196.32 2.79509 195.994 2.99715C195.953 3.02263 195.955 3.15205 195.901 3.16292C195.542 3.23325 195.279 3.13014 194.916 3.17953C194.541 3.22891 194.076 3.30252 193.617 3.25863C193.324 3.23238 193.021 2.99125 192.89 2.93221C192.539 2.76215 192.15 3.04098 191.922 2.83504C191.692 2.62807 192.145 2.31375 191.537 2.18002C191.514 2.51627 191.462 2.86139 191.426 3.19955C190.179 3.18771 188.856 3.07898 187.586 3.09383C187.423 3.09601 187.59 3.27678 187.415 3.28377C186.657 3.31249 186.057 3.18363 185.303 3.23495C184.732 3.27536 184.024 3.46675 183.457 3.51497C183.096 3.13021 182.199 3.26083 181.522 3.22567C181.286 3.21352 181.301 3.11076 181.132 3.07723C180.517 2.95324 180.809 3.29325 180.642 3.34676C179.931 3.57513 179.872 2.80553 179.009 2.82455C178.964 2.82529 178.399 3.23552 178.319 3.26107C177.819 3.42765 178.237 3.11828 177.923 3.08797C177.912 3.08691 177.901 3.08583 177.89 3.08474C177.368 3.0289 176.992 2.93692 176.356 3.05477C176.166 3.09036 175.709 3.34605 175.333 3.14827C175.284 3.12238 175.311 2.98678 175.272 2.97884C174.549 2.84647 174.528 3.27253 174.135 3.41683C173.741 3.56109 173.121 3.26698 172.994 3.18221C172.663 2.96292 173.248 3.08849 173.265 3.06698C173.475 2.81088 173.024 2.85497 172.675 2.83333C172.625 2.41558 172.135 2.44065 172.313 2.81258C172.333 2.85321 172.605 2.81425 172.675 2.83333C172.369 3.24321 171.831 3.2957 171.226 2.91268C170.944 2.73316 171.203 2.52385 170.379 2.60042C170.004 2.63499 170.149 2.92264 169.816 3.00106C169.056 3.17999 168.048 2.91166 167.239 2.95394C166.958 2.96929 167.232 3.12674 167.039 3.14266C166.528 3.18539 166.073 3.06725 165.551 3.12777C165.504 3.13345 165.619 3.29827 165.457 3.30037C164.223 3.31951 163.124 3.21394 161.857 3.21102C161.239 3.20968 160.119 3.30058 159.461 3.28231C158.352 3.2516 156.99 3.01192 156.023 3.07015C155.394 3.10742 155.531 3.27228 155.261 3.3846C154.741 3.60233 153.847 3.21233 153.722 3.15193C153.719 3.14994 154.251 3.11107 153.967 3.02645C153.802 2.85012 153.728 3.15117 153.722 3.15193C153.643 3.11292 152.574 3.0755 152.36 3.10701C152.244 3.12423 152.309 3.28043 152.248 3.28646C150.795 3.42623 149.389 3.46593 147.93 3.3929C147.904 3.38974 147.943 3.21503 147.883 3.2098C147.042 3.13211 146.484 3.34584 145.801 3.47273C145.115 3.59957 144.567 3.55709 144.157 3.25716C143.635 3.29492 142.882 3.16232 142.447 3.08187C142.012 3.00141 141.951 3.3415 141.912 3.34822C140.726 3.56341 140.054 3.36875 138.821 3.33846C138.239 3.32347 137.06 3.3728 136.437 3.40999C135.94 3.43995 135.64 3.36025 135.18 3.41121C135.118 3.41802 135.181 3.56944 135.162 3.57527C134.649 3.75644 134.895 3.38626 134.789 3.32015C134.404 3.07972 134.167 2.95167 133.506 3.06478C133.354 3.09068 132.909 3.62369 132.631 3.65486C132.269 3.69441 132.404 3.50336 132.026 3.54964C131.994 3.55342 132.001 3.67129 131.77 3.66609C130.696 3.64352 129.52 3.57493 128.394 3.58675C128.24 3.58791 128.437 3.77486 128.215 3.77962C127.165 3.80178 126.039 3.79486 125.025 3.70735C124.776 3.68522 124.932 3.55432 124.878 3.51546C124.546 3.28029 124.074 3.62198 123.996 3.62849C122.132 3.7927 120.727 3.48347 118.832 3.63069C118.729 3.63933 117.936 4.00564 117.581 3.69148C117.557 3.67058 117.207 3.34916 116.899 3.56892C116.88 3.58267 117.097 3.74814 116.718 3.73128C116.339 3.71445 115.728 3.82495 115.206 3.64314C115.04 3.58587 114.649 3.26525 114.156 3.52083C114.124 3.53867 113.361 4.11657 113.089 3.71785C113.045 3.65221 113.091 3.23027 112.501 3.44661C112.388 3.48855 112.593 3.58266 112.296 3.64143C111.843 3.73201 111.242 3.619 110.684 3.80696C110.586 3.84023 110.172 4.12662 109.839 3.90925C109.787 3.87521 109.886 3.73434 109.711 3.71858C108.876 3.64296 108.001 3.73719 107.153 3.63972C106.853 3.60548 107.006 3.37775 106.693 3.31673C106.38 3.25572 105.75 3.19704 105.422 3.3011C105.095 3.40521 105.453 3.76815 104.962 3.79719C102.83 3.92333 100.712 3.71042 98.584 3.67927C98.2684 3.67462 98.53 3.80449 98.065 3.80696C96.347 3.81662 93.3837 3.93839 91.8947 3.66243C90.6979 3.4414 92.2039 3.27312 91.2895 3.18318C90.8483 3.14027 90.3718 3.56223 90.2655 3.57551C89.2272 3.71045 88.5074 3.52354 87.5772 3.58088C87.385 3.59278 87.5741 3.76381 87.4095 3.77204C86.8458 3.8017 86.2544 3.72537 85.7176 3.73933C85.4769 3.74599 85.5212 3.87661 85.2999 3.86653C84.7702 3.84391 84.3027 3.789 83.7882 3.66658C83.7413 3.65542 84.0575 3.49293 83.6671 3.48689C83.0365 3.47757 82.2509 3.3568 81.5168 3.48152C81.2996 3.51904 81.2909 3.81757 80.8248 3.6114C80.7271 3.56834 80.8515 3.20987 80.3093 3.5196C80.2179 3.57107 79.3085 3.98885 78.864 3.71955C78.7466 3.64868 78.4473 3.35534 78.1887 3.40144C78.1536 3.4088 78.2941 3.56915 78.0799 3.58479C77.3241 3.63712 76.5155 3.62001 75.7356 3.67024C75.5269 3.68397 75.8377 3.8499 75.5267 3.86506C74.6702 3.907 73.6143 3.86475 72.7788 3.81281C72.4681 3.79335 72.6829 3.6559 72.6602 3.64094C72.2968 3.39764 72.0825 3.72604 71.9622 3.74519C71.2141 3.85985 70.6471 3.70559 69.9633 3.74641C69.7746 3.75726 69.9084 3.91384 69.8708 3.9278C69.4817 4.06423 69.7715 3.78302 69.5254 3.75202C68.8373 3.66425 68.0698 3.67684 67.3602 3.69685C67.1012 3.70443 67.3922 3.88599 67.1599 3.89069C65.7786 3.92198 64.3917 3.90461 63.0404 3.80451C62.787 3.78534 62.9465 3.64553 62.8936 3.6136C62.5296 3.39019 61.9989 3.69492 61.8771 3.72395C61.323 3.85649 61.1087 3.73285 60.6226 3.75593C58.2389 3.87083 55.318 3.78894 53.0309 3.73835C50.1264 3.67324 47.8445 3.54024 45.0149 3.57478C44.8368 3.5768 45.0163 3.76278 44.8629 3.76691C42.9215 3.81175 40.912 3.73907 38.962 3.79279C38.7955 3.79687 39.0353 3.97319 38.7685 3.98566C38.2212 4.01248 37.5385 4.0029 37.0022 3.9466C36.7407 3.91947 37.0913 3.76818 36.8283 3.74396C36.5137 3.71479 36.1901 3.6973 35.8676 3.69104C35.5437 3.68512 35.221 3.68922 34.9078 3.70295C34.6337 3.71536 35.0469 3.89569 34.6911 3.89777C32.3188 3.91566 29.9666 3.94672 27.519 3.7132C27.3554 3.69716 27.2115 3.33066 26.8684 3.40095C26.8426 3.50266 26.844 3.62231 26.8328 3.73102C23.3361 3.78959 19.8942 3.66253 16.3725 3.64289C16.2236 3.6421 16.4805 3.83629 16.193 3.83576C14.5764 3.83289 12.9184 3.88668 11.2479 3.69367C11.078 3.67479 11.1603 3.33316 10.6693 3.38483C10.5856 3.39426 9.84906 3.43982 9.64524 3.51398C9.6189 3.52517 9.75588 3.68463 9.5137 3.68927C8.12391 3.71349 6.67624 3.67708 5.2752 3.57965C5.04176 3.56363 5.28967 3.39382 5.12445 3.38093C3.98691 3.29078 2.76423 3.41987 1.67045 3.26569C0.945441 3.16188 1.21453 2.86835 0.833683 2.57941C0.768978 2.53865 0.338558 2.53219 0.303665 2.36408C0.242418 1.94136 0.466021 1.47848 0.377136 1.0279C0.347828 0.930854 -0.237092 1.03538 0.109525 0.800855C0.129579 0.785159 0.580012 0.70732 0.675323 0.62776C0.751778 0.572753 0.611331 0.401788 0.771847 0.331374C0.91635 0.261026 1.0944 0.404338 1.34138 0.321608C1.61227 0.237855 1.472 0.0433627 1.99026 0.0203398ZM140.503 2.72225C140.105 2.55892 140.047 3.15711 140.477 3.01399C140.498 3.00637 140.524 2.73026 140.503 2.72225ZM188.872 2.62777C188.367 2.36393 188.01 2.75188 188.374 2.95565C188.736 3.1592 189.025 2.70775 188.872 2.62777ZM194.307 2.43514C193.69 2.22712 193.59 3.07537 194.254 2.90389C194.293 2.8942 194.343 2.44722 194.307 2.43514ZM2.61623 2.49714C2.61099 2.48919 2.29723 2.48145 2.28219 2.48933C2.11096 2.67931 2.75384 2.69466 2.61623 2.49714ZM199.673 2.22543C199.494 2.11068 198.942 2.24314 199.18 2.38583C199.375 2.50061 199.901 2.36816 199.673 2.22543ZM119.645 2.08382C119.639 2.07491 119.407 2.06688 119.412 2.11727C119.427 2.27956 119.75 2.23375 119.645 2.08382ZM203.189 1.78437C204.544 1.8163 205.359 2.517 203.888 2.43794C203.62 2.42363 204.462 2.21449 204.125 2.15131C203.504 2.03623 203.089 2.47618 202.457 2.24043C202.342 2.19727 203.112 1.78099 203.192 1.7834C203.191 1.78372 203.19 1.78405 203.189 1.78437ZM140.274 2.00374C140.266 1.99583 139.946 1.98833 139.939 1.99618C139.766 2.18608 140.41 2.2013 140.274 2.00374ZM106.116 1.71395C106.098 1.69709 105.354 1.68133 105.33 1.69686C104.941 2.00741 106.447 2.0402 106.116 1.71395ZM161.891 1.566C162.24 1.37495 162.654 1.35246 162.928 1.59237C162.586 1.57963 162.239 1.57776 161.891 1.566Z" fill="white"/>
</svg>
