<svg width="802" height="481" viewBox="0 0 802 481" fill="none" xmlns="http://www.w3.org/2000/svg">
<path d="M0.00260417 221C0.00260417 223.946 2.39042 226.333 5.33594 226.333C8.28146 226.333 10.6693 223.946 10.6693 221C10.6693 218.054 8.28146 215.667 5.33594 215.667C2.39042 215.667 0.00260417 218.054 0.00260417 221ZM28.3359 221H29.3359V220H28.3359V221ZM27.6288 312.207C28.0194 312.598 28.6525 312.598 29.043 312.207L35.407 305.843C35.7975 305.453 35.7975 304.819 35.407 304.429C35.0165 304.038 34.3833 304.038 33.9928 304.429L28.3359 310.086L22.6791 304.429C22.2886 304.038 21.6554 304.038 21.2649 304.429C20.8743 304.819 20.8743 305.453 21.2649 305.843L27.6288 312.207ZM5.33594 221V222H28.3359V221V220H5.33594V221ZM28.3359 221H27.3359V311.5H28.3359H29.3359V221H28.3359Z" fill="#9F140B"/>
</svg>
